<?xml version="1.0" standalone="no"?>
<!DOCTYPE svg PUBLIC "-//W3C//DTD SVG 20010904//EN"
 "http://www.w3.org/TR/2001/REC-SVG-20010904/DTD/svg10.dtd">
<svg version="1.0" xmlns="http://www.w3.org/2000/svg"
 width="44.000000pt" height="44.000000pt" viewBox="0 0 44.000000 44.000000"
 preserveAspectRatio="xMidYMid meet">

<g transform="translate(0.000000,44.000000) scale(0.100000,-0.100000)"
fill="#0000FF" stroke="none">
<path d="M22 417 c-21 -22 -22 -32 -22 -198 0 -233 -15 -219 221 -219 233 0
219 -15 219 221 0 233 15 219 -221 219 -171 0 -176 -1 -197 -23z"/>
</g>
<g transform="translate(0.000000,44.000000) scale(0.100000,-0.100000)"
fill="#FFFFFF" stroke="none">
<path d="M360 290 l0 -30 -110 0 -110 0 0 -80 0 -80 -30 0 -30 0 0 110 0 110
140 0 140 0 0 -30z"/>
<path d="M338 224 c46 -32 16 -104 -44 -104 l-34 0 0 60 c0 59 0 60 28 60 15
0 38 -7 50 -16z"/>
<path d="M280 180 c0 -19 3 -21 12 -12 9 9 9 15 0 24 -9 9 -12 7 -12 -12z"/>
</g>
</svg>